<?xml version="1.0" encoding="UTF-8"?>
<svg id="circ5" xmlns="http://www.w3.org/2000/svg" viewBox="0 0 100 100">
  <defs>
    <style>
      .cls-1 {
        fill: #fff;
        stroke: #231f20;
        stroke-miterlimit: 10;
      }
    </style>
  </defs>
  <g id="Layer_40" data-name="Layer 40">
    <path class="cls-1" d="M50,20c-16.57,0-30,13.43-30,30s13.43,30,30,30,30-13.43,30-30-13.43-30-30-30ZM50,73.34c-12.89,0-23.33-10.45-23.33-23.33s10.45-23.33,23.33-23.33,23.33,10.45,23.33,23.33-10.45,23.33-23.33,23.33Z"/>
  </g>
  <g id="Layer_39" data-name="Layer 39">
    <path class="cls-1" d="M50,13.34c-20.25,0-36.67,16.42-36.67,36.67s16.42,36.67,36.67,36.67,36.67-16.42,36.67-36.67S70.25,13.34,50,13.34ZM50,80c-16.57,0-30-13.43-30-30s13.43-30,30-30,30,13.43,30,30-13.43,30-30,30Z"/>
  </g>
  <path class="cls-1" d="M50,26.67c-12.89,0-23.33,10.45-23.33,23.33s10.45,23.33,23.33,23.33,23.33-10.45,23.33-23.33-10.45-23.33-23.33-23.33ZM50,66.67c-9.2,0-16.67-7.46-16.67-16.67s7.46-16.67,16.67-16.67,16.67,7.46,16.67,16.67-7.46,16.67-16.67,16.67Z"/>
  <g id="Layer_42" data-name="Layer 42">
    <path class="cls-1" d="M50,33.34c-9.2,0-16.67,7.46-16.67,16.67s7.46,16.67,16.67,16.67,16.67-7.46,16.67-16.67-7.46-16.67-16.67-16.67ZM50,60c-5.52,0-10-4.48-10-10s4.48-10,10-10,10,4.48,10,10-4.48,10-10,10Z"/>
  </g>
  <g id="Layer_43" data-name="Layer 43">
    <path class="cls-1" d="M50,0C22.39,0,0,22.39,0,50s22.39,50,50,50,50-22.39,50-50S77.61,0,50,0ZM50,93.34c-23.93,0-43.33-19.4-43.33-43.33S26.07,6.67,50,6.67s43.33,19.4,43.33,43.33-19.4,43.33-43.33,43.33Z"/>
  </g>
  <g id="Layer_44" data-name="Layer 44">
    <circle class="cls-1" cx="50" cy="50" r="10"/>
  </g>
  <g id="Layer_45" data-name="Layer 45">
    <path class="cls-1" d="M50,6.67C26.07,6.67,6.67,26.07,6.67,50s19.4,43.33,43.33,43.33,43.33-19.4,43.33-43.33S73.93,6.67,50,6.67ZM50,86.67c-20.25,0-36.67-16.42-36.67-36.67S29.75,13.34,50,13.34s36.67,16.42,36.67,36.67-16.42,36.67-36.67,36.67Z"/>
  </g>
</svg>