<?xml version="1.0" encoding="UTF-8"?>
<svg id="circ14" xmlns="http://www.w3.org/2000/svg" viewBox="0 0 100 100">
  <defs>
    <style>
      .cls-1 {
        fill: #fff;
        stroke: #231f20;
        stroke-miterlimit: 10;
      }
    </style>
  </defs>
  <g id="Layer_93" data-name="Layer 93">
    <path class="cls-1" d="M50,0C22.39,0,0,22.39,0,50s22.39,50,50,50,50-22.39,50-50S77.61,0,50,0ZM50,86.67c-20.25,0-36.67-16.42-36.67-36.67S29.75,13.33,50,13.33s36.67,16.42,36.67,36.67-16.42,36.67-36.67,36.67Z"/>
  </g>
  <g id="Layer_94" data-name="Layer 94">
    <path class="cls-1" d="M50,13.33c-20.25,0-36.67,16.42-36.67,36.67s16.42,36.67,36.67,36.67,36.67-16.42,36.67-36.67S70.25,13.33,50,13.33ZM50,73.33c-12.89,0-23.33-10.45-23.33-23.33s10.45-23.33,23.33-23.33,23.33,10.45,23.33,23.33-10.45,23.33-23.33,23.33Z"/>
  </g>
  <g id="Layer_95" data-name="Layer 95">
    <path class="cls-1" d="M50,26.67c-12.89,0-23.33,10.45-23.33,23.33s10.45,23.33,23.33,23.33,23.33-10.45,23.33-23.33-10.45-23.33-23.33-23.33ZM50,60c-5.52,0-10-4.48-10-10s4.48-10,10-10,10,4.48,10,10-4.48,10-10,10Z"/>
  </g>
  <g id="Layer_96" data-name="Layer 96">
    <circle class="cls-1" cx="50" cy="50" r="10"/>
  </g>
</svg>