<?xml version="1.0" encoding="UTF-8"?>
<svg id="circ13" xmlns="http://www.w3.org/2000/svg" viewBox="0 0 100 100">
  <defs>
    <style>
      .cls-1 {
        fill: #fff;
        stroke: #231f20;
        stroke-miterlimit: 10;
      }
    </style>
  </defs>
  <g id="Layer_89" data-name="Layer 89">
    <path class="cls-1" d="M13.33,50c0-20.25,16.42-36.67,36.67-36.67V0C22.39,0,0,22.39,0,50s22.39,50,50,50v-13.33c-20.25,0-36.67-16.42-36.67-36.67Z"/>
  </g>
  <g id="Layer_90" data-name="Layer 90">
    <path class="cls-1" d="M26.67,50c0-12.89,10.45-23.33,23.33-23.33v-13.33c-20.25,0-36.67,16.42-36.67,36.67s16.42,36.67,36.67,36.67v-13.33c-12.89,0-23.33-10.45-23.33-23.33Z"/>
  </g>
  <g id="Layer_91" data-name="Layer 91">
    <path class="cls-1" d="M40,50c0-5.52,4.48-10,10-10v-13.33c-12.89,0-23.33,10.45-23.33,23.33s10.45,23.33,23.33,23.33v-13.33c-5.52,0-10-4.48-10-10Z"/>
  </g>
  <g id="Layer_92" data-name="Layer 92">
    <circle class="cls-1" cx="50" cy="50" r="10"/>
  </g>
</svg>