<?xml version="1.0" encoding="UTF-8"?>
<svg id="circ10" xmlns="http://www.w3.org/2000/svg" viewBox="0 0 100 100">
  <defs>
    <style>
      .cls-1 {
        fill: #fff;
        stroke: #231f20;
        stroke-miterlimit: 10;
      }
    </style>
  </defs>
  <g id="Layer_65" data-name="Layer 65">
    <path class="cls-1" d="M50,18.18c-17.57,0-31.82,14.25-31.82,31.82s14.25,31.82,31.82,31.82,31.82-14.25,31.82-31.82-14.25-31.82-31.82-31.82ZM50,63.64c-7.53,0-13.64-6.11-13.64-13.64s6.11-13.64,13.64-13.64,13.64,6.11,13.64,13.64-6.11,13.64-13.64,13.64Z"/>
  </g>
  <g id="Layer_66" data-name="Layer 66">
    <path class="cls-1" d="M50,0C22.39,0,0,22.39,0,50s22.39,50,50,50,50-22.39,50-50S77.61,0,50,0ZM50,81.82c-17.57,0-31.82-14.25-31.82-31.82s14.25-31.82,31.82-31.82,31.82,14.25,31.82,31.82-14.25,31.82-31.82,31.82Z"/>
  </g>
  <g id="Layer_67" data-name="Layer 67">
    <path class="cls-1" d="M50,36.36c-7.53,0-13.64,6.11-13.64,13.64s6.11,13.64,13.64,13.64,13.64-6.11,13.64-13.64-6.11-13.64-13.64-13.64ZM50,60c-5.52,0-10-4.48-10-10s4.48-10,10-10,10,4.48,10,10-4.48,10-10,10Z"/>
  </g>
  <g id="Layer_68" data-name="Layer 68">
    <circle class="cls-1" cx="50" cy="50" r="10"/>
  </g>
</svg>