<?xml version="1.0" encoding="UTF-8"?>
<svg id="circ4" xmlns="http://www.w3.org/2000/svg" viewBox="0 0 100 100">
  <defs>
    <style>
      .cls-1 {
        fill: #fff;
        stroke: #231f20;
        stroke-miterlimit: 10;
      }
    </style>
  </defs>
  <g id="Layer_35" data-name="Layer 35">
    <path class="cls-1" d="M100,50v50h-6.67v-50c0-8.49-2.44-16.41-6.66-23.09-1.89-2.99-4.13-5.74-6.67-8.18-2.04-1.96-4.28-3.72-6.67-5.25-2.11-1.35-4.33-2.52-6.66-3.49-5.13-2.14-10.76-3.32-16.67-3.32C26.07,6.67,6.67,26.07,6.67,50v50H0v-50C0,22.39,22.39,0,50,0c5.85,0,11.46,1,16.67,2.85,2.3.81,4.53,1.79,6.66,2.92,2.34,1.24,4.57,2.65,6.67,4.24,2.41,1.8,4.64,3.82,6.67,6.02,2.55,2.74,4.78,5.76,6.66,9.01,4.24,7.34,6.67,15.87,6.67,24.96Z"/>
  </g>
  <g id="Layer_36" data-name="Layer 36">
    <path class="cls-1" d="M86.67,50v50h-6.67v-50c0-7.15-2.5-13.7-6.67-18.85-1.89-2.35-4.14-4.41-6.66-6.09-4.77-3.2-10.5-5.06-16.67-5.06-16.57,0-30,13.43-30,30v50h-6.67v-50c0-20.25,16.42-36.67,36.67-36.67,6.01,0,11.67,1.44,16.67,4,2.39,1.22,4.62,2.69,6.66,4.38,2.53,2.09,4.77,4.51,6.67,7.19,4.2,5.97,6.67,13.24,6.67,21.1Z"/>
  </g>
  <g id="Layer_37" data-name="Layer 37">
    <path class="cls-1" d="M73.33,50v50h-6.66v-50c0-9.2-7.47-16.67-16.67-16.67s-16.67,7.47-16.67,16.67v50h-6.66v-50c0-12.89,10.44-23.33,23.33-23.33,6.53,0,12.44,2.68,16.67,7.01,4.12,4.2,6.66,9.96,6.66,16.32Z"/>
  </g>
  <g id="Layer_38" data-name="Layer 38">
    <circle class="cls-1" cx="50" cy="50" r="10"/>
  </g>
</svg>