<?xml version="1.0" encoding="UTF-8"?>
<svg id="circ8" xmlns="http://www.w3.org/2000/svg" viewBox="0 0 100 100">
  <defs>
    <style>
      .cls-1 {
        fill: #fff;
        stroke: #231f20;
        stroke-miterlimit: 10;
      }
    </style>
  </defs>
  <g id="Layer_54" data-name="Layer 54">
    <path class="cls-1" d="M50-1C22.39-1,0,21.39,0,49s22.39,50,50,50v-6.67c-23.93,0-43.33-19.4-43.33-43.33S26.07,5.67,50,5.67s43.34,19.4,43.34,43.33h6.66C100,21.39,77.62-1,50-1Z"/>
  </g>
  <g id="Layer_55" data-name="Layer 55">
    <path class="cls-1" d="M50,5.67C26.07,5.67,6.67,25.07,6.67,49s19.4,43.33,43.33,43.33v-6.67c-20.25,0-36.66-16.41-36.66-36.66S29.75,12.34,50,12.34s36.67,16.41,36.67,36.66h6.67c0-23.93-19.4-43.33-43.34-43.33Z"/>
  </g>
  <g id="Layer_56" data-name="Layer 56">
    <path class="cls-1" d="M50,12.34c-20.25,0-36.66,16.41-36.66,36.66s16.41,36.66,36.66,36.66v-6.66c-16.57,0-30-13.43-30-30s13.43-30,30-30,30,13.43,30,30h6.67c0-20.25-16.42-36.66-36.67-36.66Z"/>
  </g>
  <g id="Layer_57" data-name="Layer 57">
    <path class="cls-1" d="M50,19c-16.57,0-30,13.43-30,30s13.43,30,30,30v-6.67c-12.88,0-23.33-10.45-23.33-23.33s10.45-23.33,23.33-23.33,23.34,10.45,23.34,23.33h6.66c0-16.57-13.43-30-30-30Z"/>
  </g>
  <g id="Layer_58" data-name="Layer 58">
    <path class="cls-1" d="M50,25.67c-12.88,0-23.33,10.45-23.33,23.33s10.45,23.33,23.33,23.33v-6.67c-9.2,0-16.66-7.46-16.66-16.66s7.46-16.66,16.66-16.66,16.67,7.46,16.67,16.66h6.67c0-12.88-10.45-23.33-23.34-23.33Z"/>
  </g>
  <g id="Layer_59" data-name="Layer 59">
    <path class="cls-1" d="M50,32.34c-9.2,0-16.66,7.46-16.66,16.66s7.46,16.66,16.66,16.66v-6.66c-5.52,0-10-4.48-10-10s4.48-10,10-10,10,4.48,10,10h6.67c0-9.2-7.46-16.66-16.67-16.66Z"/>
  </g>
  <g id="Layer_60" data-name="Layer 60">
    <circle class="cls-1" cx="50" cy="49" r="10"/>
  </g>
</svg>