<?xml version="1.0" encoding="UTF-8"?>
<svg id="circ11" xmlns="http://www.w3.org/2000/svg" viewBox="0 0 100 100">
  <defs>
    <style>
      .cls-1 {
        fill: #fff;
        stroke: #231f20;
        stroke-miterlimit: 10;
      }
    </style>
  </defs>
  <g id="Layer_69" data-name="Layer 69">
    <path class="cls-1" d="M50,0C22.39,0,0,22.39,0,50h6.67C6.67,26.07,26.07,6.67,50,6.67s43.34,19.4,43.34,43.33h6.66C100,22.39,77.62,0,50,0Z"/>
  </g>
  <g id="Layer_70" data-name="Layer 70">
    <path class="cls-1" d="M50,6.67C26.07,6.67,6.67,26.07,6.67,50h6.67c0-20.25,16.41-36.66,36.66-36.66s36.67,16.41,36.67,36.66h6.67c0-23.93-19.4-43.33-43.34-43.33Z"/>
  </g>
  <g id="Layer_71" data-name="Layer 71">
    <path class="cls-1" d="M50,13.34c-20.25,0-36.66,16.41-36.66,36.66h6.66c0-16.57,13.43-30,30-30s30,13.43,30,30h6.67c0-20.25-16.42-36.66-36.67-36.66Z"/>
  </g>
  <g id="Layer_72" data-name="Layer 72">
    <path class="cls-1" d="M50,20c-16.57,0-30,13.43-30,30h6.67c0-12.88,10.45-23.33,23.33-23.33s23.34,10.45,23.34,23.33h6.66c0-16.57-13.43-30-30-30Z"/>
  </g>
  <g id="Layer_73" data-name="Layer 73">
    <path class="cls-1" d="M50,26.67c-12.88,0-23.33,10.45-23.33,23.33h6.67c0-9.2,7.46-16.66,16.66-16.66s16.67,7.46,16.67,16.66h6.67c0-12.88-10.45-23.33-23.34-23.33Z"/>
  </g>
  <g id="Layer_74" data-name="Layer 74">
    <path class="cls-1" d="M50,33.34c-9.2,0-16.66,7.46-16.66,16.66h6.66c0-5.52,4.48-10,10-10,0,0,0,0,0,0s0,0,0,0c5.52,0,10,4.48,10,10h6.67c0-9.2-7.46-16.66-16.67-16.66Z"/>
  </g>
  <g id="Layer_75" data-name="Layer 75">
    <path class="cls-1" d="M50.01,40s0,0,0,0c-5.52,0-10,4.48-10,10s4.48,10,10,10,10-4.48,10-10-4.48-10-10-10Z"/>
  </g>
</svg>