<?xml version="1.0" encoding="UTF-8"?>
<svg id="circ6" xmlns="http://www.w3.org/2000/svg" viewBox="0 0 100 100">
  <defs>
    <style>
      .cls-1 {
        fill: #fff;
        stroke: #231f20;
        stroke-miterlimit: 10;
      }
    </style>
  </defs>
  <g id="Layer_46" data-name="Layer 46">
    <path class="cls-1" d="M100,0v6.67h-50c-8.48,0-16.4,2.44-23.08,6.66-3,1.88-5.75,4.13-8.19,6.67-1.96,2.04-3.72,4.28-5.25,6.67-1.35,2.11-2.52,4.33-3.48,6.66-2.15,5.13-3.33,10.76-3.33,16.67v50H0v-50C0,44.15,1,38.54,2.85,33.33c.81-2.3,1.79-4.53,2.92-6.66,1.24-2.34,2.65-4.57,4.24-6.67,1.8-2.41,3.81-4.64,6.02-6.67,2.74-2.54,5.76-4.78,9.02-6.66C32.39,2.43,40.91,0,50,0h50Z"/>
  </g>
  <g id="Layer_47" data-name="Layer 47">
    <path class="cls-1" d="M100,26.67v6.66h-50c-9.2,0-16.66,7.47-16.66,16.67v50h-6.67v-50c0-6.53,2.69-12.44,7.01-16.67,4.21-4.12,9.97-6.66,16.32-6.66h50Z"/>
  </g>
  <g id="Layer_48" data-name="Layer 48">
    <circle class="cls-1" cx="50" cy="50" r="10"/>
  </g>
  <g id="Layer_49" data-name="Layer 49">
    <path class="cls-1" d="M100,13.33v6.67h-50c-7.14,0-13.7,2.5-18.85,6.67-2.36,1.9-4.41,4.15-6.09,6.66-3.2,4.77-5.06,10.5-5.06,16.67v50h-6.66v-50c0-6.01,1.44-11.67,4-16.67,1.22-2.39,2.69-4.62,4.38-6.66,2.08-2.53,4.5-4.77,7.19-6.67,5.96-4.2,13.24-6.67,21.09-6.67h50Z"/>
  </g>
</svg>