<?xml version="1.0" encoding="UTF-8"?>
<svg id="circ2" xmlns="http://www.w3.org/2000/svg" viewBox="0 0 100 100">
  <defs>
    <style>
      .cls-1 {
        fill: #fff;
        stroke: #231f20;
        stroke-miterlimit: 10;
      }
    </style>
  </defs>
  <g id="Layer_29" data-name="Layer 29">
    <path class="cls-1" d="M50,26.67c-12.89,0-23.33,10.45-23.33,23.33s10.45,23.33,23.33,23.33,23.33-10.45,23.33-23.33-10.45-23.33-23.33-23.33ZM50,60c-5.52,0-10-4.48-10-10s4.48-10,10-10,10,4.48,10,10-4.48,10-10,10Z"/>
  </g>
  <g id="Layer_30" data-name="Layer 30">
    <path class="cls-1" d="M50,0C22.39,0,0,22.39,0,50s22.39,50,50,50,50-22.39,50-50S77.61,0,50,0ZM50,86.67c-20.25,0-36.67-16.42-36.67-36.67S29.75,13.34,50,13.34s36.67,16.42,36.67,36.67-16.42,36.67-36.67,36.67Z"/>
  </g>
</svg>