<?xml version="1.0" encoding="UTF-8"?>
<svg id="circ3" xmlns="http://www.w3.org/2000/svg" viewBox="0 0 100 100">
  <defs>
    <style>
      .cls-1 {
        fill: #fff;
        stroke: #231f20;
        stroke-miterlimit: 10;
      }
    </style>
  </defs>
  <g id="Layer_31" data-name="Layer 31">
    <path class="cls-1" d="M50,0C22.39,0,0,22.39,0,50s22.39,50,50,50,50-22.39,50-50S77.61,0,50,0ZM50,93.34c-23.93,0-43.33-19.4-43.33-43.33S26.07,6.67,50,6.67s43.33,19.4,43.33,43.33-19.4,43.33-43.33,43.33Z"/>
  </g>
  <g id="Layer_32" data-name="Layer 32">
    <circle class="cls-1" cx="50" cy="50" r="10"/>
  </g>
  <g id="Layer_33" data-name="Layer 33">
    <path class="cls-1" d="M50,13.34c-20.25,0-36.67,16.42-36.67,36.67s16.42,36.67,36.67,36.67,36.67-16.42,36.67-36.67S70.25,13.34,50,13.34ZM50,80c-16.57,0-30-13.43-30-30s13.43-30,30-30,30,13.43,30,30-13.43,30-30,30Z"/>
  </g>
  <g id="Layer_34" data-name="Layer 34">
    <path class="cls-1" d="M50,26.67c-12.89,0-23.33,10.45-23.33,23.33s10.45,23.33,23.33,23.33,23.33-10.45,23.33-23.33-10.45-23.33-23.33-23.33ZM50,66.67c-9.2,0-16.67-7.46-16.67-16.67s7.46-16.67,16.67-16.67,16.67,7.46,16.67,16.67-7.46,16.67-16.67,16.67Z"/>
  </g>
</svg>