<?xml version="1.0" encoding="UTF-8"?>
<svg id="circ1" xmlns="http://www.w3.org/2000/svg" viewBox="0 0 100 100">
  <defs>
    <style>
      .cls-1 {
        fill: #fff;
        stroke: #231f20;
        stroke-miterlimit: 10;
      }
    </style>
  </defs>
  <g id="Layer_25" data-name="Layer 25">
    <path class="cls-1" d="M50,13.34c-20.25,0-36.66,16.41-36.66,36.66h6.66c0-16.56,13.43-30,30-30s30,13.44,30,30-13.43,30-30,30v6.67c20.25,0,36.67-16.42,36.67-36.67S70.25,13.34,50,13.34Z"/>
  </g>
  <g id="Layer_26" data-name="Layer 26">
    <path class="cls-1" d="M50,0C22.39,0,0,22.39,0,50h6.67C6.67,26.07,26.07,6.67,50,6.67s43.34,19.4,43.34,43.33-19.4,43.34-43.34,43.34v6.66c27.62,0,50-22.38,50-50S77.62,0,50,0Z"/>
  </g>
  <g id="Layer_27" data-name="Layer 27">
    <path class="cls-1" d="M50,26.67c-12.88,0-23.33,10.45-23.33,23.33h6.67c0-9.2,7.46-16.66,16.66-16.66s16.67,7.46,16.67,16.66-7.46,16.67-16.67,16.67v6.67c12.89,0,23.34-10.45,23.34-23.34s-10.45-23.33-23.34-23.33Z"/>
  </g>
  <g id="Layer_28" data-name="Layer 28">
    <circle class="cls-1" cx="50" cy="50" r="10"/>
  </g>
</svg>