<?xml version="1.0" encoding="UTF-8"?>
<svg id="circ9" xmlns="http://www.w3.org/2000/svg" viewBox="0 0 100 100">
  <defs>
    <style>
      .cls-1 {
        fill: #fff;
        stroke: #231f20;
        stroke-miterlimit: 10;
      }
    </style>
  </defs>
  <g id="Layer_61" data-name="Layer 61">
    <path class="cls-1" d="M50,0C22.39,0,0,22.39,0,50h6.67C6.67,26.07,26.07,6.67,50,6.67s43.33,19.4,43.33,43.33h6.67C100,22.39,77.62,0,50,0Z"/>
  </g>
  <g id="Layer_62" data-name="Layer 62">
    <path class="cls-1" d="M50,13.33c-20.25,0-36.67,16.42-36.67,36.67h6.67c0-16.57,13.43-30,30-30s30,13.43,30,30h6.67c0-20.25-16.42-36.67-36.67-36.67Z"/>
  </g>
  <g id="Layer_63" data-name="Layer 63">
    <path class="cls-1" d="M50,26.67c-12.89,0-23.33,10.45-23.33,23.33h6.67c0-9.2,7.46-16.67,16.67-16.67s16.67,7.46,16.67,16.67h6.67c0-12.89-10.45-23.33-23.33-23.33Z"/>
  </g>
  <g id="Layer_64" data-name="Layer 64">
    <circle class="cls-1" cx="50" cy="50" r="10"/>
  </g>
</svg>