<svg width="100" height="100" viewBox="0 0 100 100" fill="none" xmlns="http://www.w3.org/2000/svg">
<g clip-path="url(#clip0_142_507)">
<path d="M50 0C22.39 0 0 22.39 0 50C0 77.61 22.39 100 50 100V93.33C26.07 93.33 6.67 73.93 6.67 50C6.67 26.07 26.07 6.67 50 6.67C73.93 6.67 93.34 26.07 93.34 50H100C100 22.39 77.62 0 50 0Z" fill="white" stroke="#231F20" stroke-miterlimit="10"/>
<path d="M49.9999 6.66992C26.0699 6.66992 6.66992 26.0699 6.66992 49.9999C6.66992 73.9299 26.0699 93.3299 49.9999 93.3299V86.6599C29.7499 86.6599 13.3399 70.2499 13.3399 49.9999C13.3399 29.7499 29.7499 13.3399 49.9999 13.3399C70.2499 13.3399 86.6699 29.7499 86.6699 49.9999H93.3399C93.3399 26.0699 73.9399 6.66992 49.9999 6.66992Z" fill="white" stroke="#231F20" stroke-miterlimit="10"/>
<path d="M49.9998 13.3398C29.7498 13.3398 13.3398 29.7498 13.3398 49.9998C13.3398 70.2498 29.7498 86.6599 49.9998 86.6599V79.9998C33.4298 79.9998 19.9998 66.5698 19.9998 49.9998C19.9998 33.4298 33.4298 19.9998 49.9998 19.9998C66.5698 19.9998 79.9998 33.4298 79.9998 49.9998H86.6698C86.6698 29.7498 70.2498 13.3398 49.9998 13.3398Z" fill="white" stroke="#231F20" stroke-miterlimit="10"/>
<path d="M50 20C33.43 20 20 33.43 20 50C20 66.57 33.43 80 50 80V73.33C37.12 73.33 26.67 62.88 26.67 50C26.67 37.12 37.12 26.67 50 26.67C62.88 26.67 73.34 37.12 73.34 50H80C80 33.43 66.57 20 50 20Z" fill="white" stroke="#231F20" stroke-miterlimit="10"/>
<path d="M49.9999 26.6699C37.1199 26.6699 26.6699 37.1199 26.6699 49.9999C26.6699 62.8799 37.1199 73.3299 49.9999 73.3299V66.6599C40.7999 66.6599 33.3399 59.1999 33.3399 49.9999C33.3399 40.7999 40.7999 33.3399 49.9999 33.3399C59.1999 33.3399 66.6699 40.7999 66.6699 49.9999H73.3399C73.3399 37.1199 62.8899 26.6699 49.9999 26.6699Z" fill="white" stroke="#231F20" stroke-miterlimit="10"/>
<path d="M49.9998 33.3398C40.7998 33.3398 33.3398 40.7998 33.3398 49.9998C33.3398 59.1998 40.7998 66.6598 49.9998 66.6598V59.9998C44.4798 59.9998 39.9998 55.5198 39.9998 49.9998C39.9998 44.4798 44.4798 39.9998 49.9998 39.9998C55.5198 39.9998 59.9998 44.4798 59.9998 49.9998H66.6698C66.6698 40.7998 59.2098 33.3398 49.9998 33.3398Z" fill="white" stroke="#231F20" stroke-miterlimit="10"/>
<path d="M50 60C55.5228 60 60 55.5228 60 50C60 44.4772 55.5228 40 50 40C44.4772 40 40 44.4772 40 50C40 55.5228 44.4772 60 50 60Z" fill="white" stroke="#231F20" stroke-miterlimit="10"/>
</g>
<defs>
<clipPath id="clip0_142_507">
<rect width="100" height="100" fill="white"/>
</clipPath>
</defs>
</svg>
