<svg width="223" height="187" viewBox="0 0 223 187" fill="none" xmlns="http://www.w3.org/2000/svg">
<path d="M2.98682 20.0932C5.33881 23.6212 7.29881 24.7972 7.29881 36.5572" stroke="#FDFDFD" stroke-width="7.17949"/>
<path d="M35.9141 8.33324C26.5061 9.11724 23.7621 25.1892 23.7621 36.5572" stroke="#FDFDFD" stroke-width="7.17949"/>
<path d="M38.2666 19.3092C32.7786 24.7972 32.3866 31.8532 32.3866 36.5572" stroke="#FDFDFD" stroke-width="7.17949"/>
<path d="M8.8667 2.84532C19.0587 10.6853 15.5307 25.5813 15.5307 36.5573" stroke="#FDFDFD" stroke-width="7.17949"/>
<path d="M4.16309 144.357C4.16309 121.192 22.9419 102.413 46.1069 102.413H183.11C187.765 102.413 191.538 98.6399 191.538 93.9853C191.538 89.3307 187.765 85.5573 183.11 85.5573H53.1622C26.1005 85.5571 4.16309 63.6191 4.16309 36.5573H35.5222C35.5222 46.2995 43.4201 54.1972 53.1622 54.1973H183.11C205.084 54.1973 222.898 72.0111 222.898 93.9853C222.898 115.96 205.084 133.773 183.11 133.773H46.1069C40.2615 133.773 35.5222 138.512 35.5222 144.357C35.5222 150.203 40.2615 154.941 46.1069 154.941H207.218V186.301H46.1069C22.9419 186.301 4.16309 167.522 4.16309 144.357Z" fill="#FDFDFD"/>
<rect x="119.41" y="154.941" width="6.27199" height="31.3599" fill="#00AB22"/>
<rect x="59.8267" y="102.413" width="6.27199" height="31.3599" fill="#00AB22"/>
<rect x="139.01" y="54.1971" width="6.27199" height="31.3599" fill="#00AB22"/>
<rect x="132.738" y="154.941" width="6.27199" height="31.3599" fill="#00AB22"/>
<rect x="73.1543" y="102.413" width="6.27199" height="31.3599" fill="#00AB22"/>
<rect x="152.338" y="54.1971" width="6.27199" height="31.3599" fill="#00AB22"/>
<rect x="146.066" y="154.941" width="6.27199" height="31.3599" fill="#00AB22"/>
<rect x="86.4829" y="102.413" width="6.27199" height="31.3599" fill="#00AB22"/>
<rect x="165.666" y="54.1971" width="6.27199" height="31.3599" fill="#00AB22"/>
</svg>
