<?xml version="1.0" encoding="UTF-8"?>
<svg id="Layer_2" data-name="Layer 2" xmlns="http://www.w3.org/2000/svg" viewBox="0 0 361.28 400.92">
  <g id="Layer_1-2" data-name="Layer 1">
    <path d="M358.16,335.71h-1.48c0-5.4-3.89-10.29-9.92-12.46l-19.45-7h-.54v-85.3c0-8.31-6.73-15.04-15.04-15.04h-121.58v-.54h-.05v-37.58h53.28c7.95,0,14.4-6.45,14.4-14.4V42.99h-2.19V2.8c0-.77-.31-1.48-.82-1.98-.51-.51-1.22-.83-2-.82-1.56,0-2.79,1.33-2.79,2.89v11.45c0,.53-.43.97-.97.97s-.97-.43-.97-.97V2.8c0-.77-.31-1.48-.82-1.98-.51-.51-1.22-.83-2-.82-1.56,0-2.79,1.33-2.79,2.88v11.45c0,.53-.43.97-.97.97h-.09c-.53,0-.97-.43-.97-.97V2.8c0-.77-.31-1.48-.82-1.98-.55-.55-1.33-.88-2.19-.81-1.48.11-2.6,1.39-2.6,2.87v40.11h-2.19v109.66h-42.54v-59.1c0-28.87-23.41-52.28-52.28-52.28h0c-28.87,0-52.28,23.41-52.28,52.28v121.81h-.04v.55H25.14v-109.66h-2.19v-40.11c0-1.48-1.12-2.76-2.6-2.87-.85-.06-1.64.26-2.19.81-.51.51-.82,1.21-.82,1.98v11.53c0,.53-.43.97-.97.97h-.09c-.53,0-.97-.43-.97-.97v-11.45c0-1.56-1.23-2.88-2.79-2.88-.78,0-1.49.31-2,.82-.51.51-.82,1.21-.82,1.98v11.53c0,.53-.43.97-.97.97s-.97-.43-.97-.97v-11.45c0-1.56-1.23-2.88-2.79-2.89-.78,0-1.49.31-2,.82-.51.51-.82,1.21-.82,1.98v40.18H0v122.38c0,6.86,5.56,12.42,12.42,12.42h73.08v20.64c0,12.14,9.84,21.98,21.98,21.98h126.38v90.29l-19.27,7c-6.02,2.17-9.92,7.06-9.92,12.46h-1.48c-1.72,0-3.12,1.4-3.12,3.12v1.25c0,1.72,1.4,3.12,3.12,3.12h53.4c1.72,0,3.12-1.4,3.12-3.12v-1.25c0-1.72-1.4-3.12-3.12-3.12h-1.48v-19.47h3.87v-101.88c0-7.48-6.07-13.55-13.55-13.55h-55.31v-17.49h111.48v75.75h4.6v18.92h-1.48c-1.72,0-3.12,1.4-3.12,3.12v1.25c0,1.72,1.4,3.12,3.12,3.12h53.4c1.72,0,3.12-1.4,3.12-3.12v-1.25c0-1.72-1.4-3.12-3.12-3.12Z"/>
  </g>
</svg>