<?xml version="1.0" encoding="UTF-8"?>
<svg id="Layer_2" data-name="Layer 2" xmlns="http://www.w3.org/2000/svg" viewBox="0 0 375.06 354.23">
  <g id="Layer_1-2" data-name="Layer 1">
    <path d="M181.1,351.08v-12.53c0-.58.47-1.06,1.06-1.06s1.06.47,1.06,1.06v12.62c0,.85.34,1.61.9,2.17.56.56,1.33.9,2.18.9,1.7,0,3.05-1.45,3.05-3.16v-12.53c0-.58.47-1.06,1.06-1.06h.1c.58,0,1.06.47,1.06,1.06v12.62c0,.85.34,1.61.9,2.17.6.61,1.46.96,2.39.89,1.62-.12,2.84-1.52,2.84-3.14v-44.28h2.39s0-141,0-141h20.19s0,88.91,0,88.91c0,6.81,5.52,12.33,12.33,12.33h97.28s0-2.39,0-2.39h42.11c.85,0,1.61-.34,2.17-.9.56-.56.9-1.33.9-2.19,0-1.7-1.46-3.05-3.16-3.05h-12.53c-.58,0-1.06-.47-1.06-1.06s.47-1.06,1.06-1.06h12.62c.85,0,1.61-.34,2.17-.9.56-.56.9-1.33.9-2.18,0-1.7-1.45-3.05-3.16-3.05h-12.53c-.58,0-1.06-.47-1.06-1.06v-.1c0-.58.47-1.06,1.06-1.06h12.62c.85,0,1.61-.34,2.17-.9.61-.6.96-1.46.89-2.39-.12-1.62-1.52-2.84-3.14-2.84h-42.03v-2.39s-82.11,0-82.11,0v-73.86c30.51-1.22,54.89-26.27,54.89-57.08,0-31.59-25.61-57.2-57.2-57.2H111.79s0-13.53,0-13.53C111.79,16.95,94.84,0,73.93,0c-20.91,0-37.87,16.95-37.87,37.87l.3,76.53v205.24s.8,0,.8,0l-21.28,7.16c-6.59,2.22-10.85,7.21-10.85,12.74h-1.61C1.53,339.53,0,341.05,0,342.94v.83c0,1.89,1.53,3.41,3.41,3.41h58.43c1.89,0,3.41-1.53,3.41-3.41v-.83c0-1.89-1.53-3.41-3.41-3.41h-1.61v-19.89h3.63s0-205.24,0-205.24h20.42s0,205.24,0,205.24h4.03v19.89h-1.61c-1.89,0-3.41,1.53-3.41,3.41v.83c0,1.89,1.53,3.41,3.41,3.41h58.43c1.89,0,3.41-1.53,3.41-3.41v-.83c0-1.89-1.53-3.41-3.41-3.41h-1.61,0c0-5.52-4.26-10.52-10.85-12.74l-20.88-7.16v-153.84s60.79,0,60.79,0v141s2.39,0,2.39,0v44.37c0,.85.34,1.61.9,2.17.56.56,1.33.9,2.19.9,1.7,0,3.05-1.46,3.05-3.16Z"/>
  </g>
</svg>