<?xml version="1.0" encoding="UTF-8"?>
<svg id="Layer_2" data-name="Layer 2" xmlns="http://www.w3.org/2000/svg" viewBox="0 0 255.74 514.32">
  <g id="Layer_1-2" data-name="Layer 1">
    <path d="M253.7,40.38V2.61c0-.72-.29-1.37-.77-1.85-.47-.48-1.13-.77-1.86-.77-1.45,0-2.6,1.24-2.6,2.69v10.66c0,.5-.4.9-.9.9s-.9-.4-.9-.9V2.61c0-.72-.29-1.37-.77-1.85-.47-.48-1.13-.77-1.86-.77-1.45,0-2.6,1.24-2.6,2.69v10.67c0,.5-.4.9-.9.9h-.08c-.5,0-.9-.4-.9-.9V2.61c0-.72-.29-1.37-.77-1.85-.51-.52-1.24-.82-2.04-.76-1.38.1-2.42,1.29-2.42,2.67v37.7h-2.04v52.93h-88.96c-7.27,0-13.16,5.89-13.16,13.16v38.94H62.13c-25.28,0-45.77,20.49-45.77,45.77v109.46h0v12.57c0,8.69,7.04,15.73,15.73,15.73h0v161.94h-.47l-18.12,6.09c-5.61,1.89-9.24,6.14-9.24,10.84h-1.37c-1.61,0-2.91,1.3-2.91,2.91v.71c0,1.61,1.3,2.91,2.91,2.91h49.74c1.61,0,2.91-1.3,2.91-2.91v-.71c0-1.61-1.3-2.91-2.91-2.91h-1.37v-16.93h4.24v-161.94h19v161.94h1.02v16.93h-1.37c-1.61,0-2.91,1.3-2.91,2.91v.71c0,1.61,1.3,2.91,2.91,2.91h49.74c1.61,0,2.91-1.3,2.91-2.91v-.71c0-1.61-1.3-2.91-2.91-2.91h-1.37c0-4.7-3.62-8.95-9.24-10.84l-18.12-6.09h2.75v-161.94h0c8.69,0,15.73-7.04,15.73-15.73v-11.67h.08v-58.75h16.46v136.74h2.04v37.77c0,.72.29,1.37.77,1.85.47.48,1.13.77,1.86.76,1.45,0,2.6-1.24,2.6-2.69v-10.66c0-.5.4-.9.9-.9s.9.4.9.9v10.74c0,.72.29,1.37.77,1.85.47.48,1.13.77,1.86.76,1.45,0,2.6-1.24,2.6-2.69v-10.67c0-.5.4-.9.9-.9h.08c.5,0,.9.4.9.9v10.74c0,.72.29,1.37.77,1.85.51.52,1.24.82,2.04.76,1.38-.1,2.42-1.29,2.42-2.67v-37.7h2.04v-136.74h7.27c13.44,0,25.62-5.45,34.43-14.26,8.81-8.81,14.26-20.98,14.26-34.43,0-26.89-21.8-48.69-48.69-48.69h-7.27v-28.69h88.96c7.27,0,13.16-5.89,13.16-13.16v-63.18h-2.04Z"/>
  </g>
</svg>