<?xml version="1.0" encoding="UTF-8"?>
<svg id="Layer_2" data-name="Layer 2" xmlns="http://www.w3.org/2000/svg" viewBox="0 0 186.56 451.67">
  <g id="Layer_1-2" data-name="Layer 1">
    <path d="M183.63,333.6h-.71c-1.61,0-2.92,1.31-2.92,2.92v1.38h-17.03v-3.52h-48.08v-57.97c10.66-.78,19.07-9.66,19.07-20.52v-9.1h5.57v-109.19h18.03v140.28h2.06v37.65c0,.73.29,1.38.77,1.86.48.48,1.14.77,1.87.77,1.46,0,2.61-1.25,2.61-2.7v-10.73c0-.5.4-.9.9-.9s.9.4.9.9v10.8c0,.73.29,1.38.77,1.86.48.48,1.14.77,1.87.77,1.46,0,2.61-1.25,2.61-2.7v-10.73c0-.5.4-.9.9-.9h.08c.5,0,.9.4.9.9v10.8c0,.73.29,1.38.77,1.86.52.52,1.25.82,2.05.76,1.38-.1,2.43-1.3,2.43-2.69v-37.58h2.04V126.22c0-6.72-5.45-12.16-12.16-12.16h-29.42V48.91C139.52,21.9,117.62,0,90.61,0s-48.91,21.9-48.91,48.91v65.15H12.16c-6.72,0-12.16,5.45-12.16,12.16v151.67h1.4v37.65c0,.73.29,1.38.77,1.86.48.48,1.14.77,1.87.77,1.46,0,2.61-1.25,2.61-2.7v-10.73c0-.5.41-.9.9-.9s.9.4.9.9v10.8c0,.73.29,1.38.77,1.86.48.48,1.14.77,1.87.77,1.46,0,2.61-1.25,2.61-2.7v-10.73c0-.5.41-.9.9-.9h.08c.5,0,.9.4.9.9v10.8c0,.73.29,1.38.77,1.86.52.52,1.25.82,2.05.76,1.38-.1,2.43-1.3,2.43-2.69v-37.58h2.7v-140.28h18.15v109.19h5.56v99.21c0,6.59,5.34,11.93,11.93,11.93h32.14v70.14h4.31v17.03h-1.38c-1.61,0-2.92,1.31-2.92,2.92v.71c0,1.61,1.31,2.92,2.92,2.92h50.03c1.61,0,2.92-1.31,2.92-2.92v-.71c0-1.61-1.31-2.92-2.92-2.92h-1.38c0-4.73-3.65-9.01-9.29-10.91l-18.23-6.13h-.51v-70.14h48.08l6.13,17.95c1.9,5.64,6.18,9.29,10.91,9.29v1.38c0,1.61,1.31,2.92,2.92,2.92h.71c1.61,0,2.92-1.31,2.92-2.92v-50.03c0-1.61-1.31-2.92-2.92-2.92ZM91.34,334.39h-20.52v-57.9h20.52v57.9Z"/>
  </g>
</svg>