<?xml version="1.0" encoding="UTF-8"?>
<svg id="Layer_2" data-name="Layer 2" xmlns="http://www.w3.org/2000/svg" viewBox="0 0 240.41 469.26">
  <g id="Layer_1-2" data-name="Layer 1">
    <path d="M228.06,187.57c6.82,0,12.34-5.53,12.34-12.34V40.73h-2.07V2.9c0-.8-.3-1.53-.78-2.05-.48-.53-1.15-.86-1.89-.85-1.48,0-2.64,1.38-2.64,2.99v11.86c0,.55-.41,1-.92,1s-.92-.45-.92-1V2.9c0-.8-.3-1.53-.78-2.05-.48-.53-1.15-.86-1.89-.85-1.48,0-2.64,1.38-2.64,2.99v11.86c0,.55-.41,1-.92,1h-.08c-.51,0-.92-.45-.92-1V2.9c0-.8-.3-1.53-.78-2.05-.52-.57-1.26-.91-2.07-.84-1.4.11-2.46,1.44-2.46,2.97v37.74h-2.07v123h-43.05c-1.49-11.01-6.54-20.89-14.02-28.37-8.97-8.97-21.37-14.52-35.06-14.52h-16.71v-16.71c0-13.69-5.55-26.09-14.52-35.06-8.97-8.97-21.37-14.52-35.06-14.52-27.38,0-49.58,22.2-49.58,49.58v66.29c0,27.38,22.2,49.58,49.58,49.58h16.71v33.86h-5.93v9.21c0,11.52,9.33,20.85,20.85,20.85h4.88v63.1H23.8v4.36H6.64v-1.4c0-1.63-1.33-2.96-2.96-2.96h-.72c-1.63,0-2.96,1.33-2.96,2.96v50.65c0,1.63,1.33,2.96,2.96,2.96h.72c1.63,0,2.96-1.33,2.96-2.96v-1.4c4.79,0,9.12-3.69,11.04-9.4l6.2-18.45v-.52h81.3c7.36,0,13.32-5.97,13.32-13.32v-73.62h21.96v161.47h4.36v17.24h-1.4c-1.63,0-2.96,1.33-2.96,2.96v.72c0,1.63,1.33,2.96,2.96,2.96h50.65c1.63,0,2.96-1.33,2.96-2.96v-.72c0-1.63-1.33-2.96-2.96-2.96h-1.4c0-4.79-3.69-9.12-9.4-11.04l-18.45-6.2h-.51v-161.47h4.1c11.52,0,20.85-9.33,20.85-20.85v-9.21h-15.24v-23.97h42.55v140.97h2.07v38.46c0,.73.3,1.4.78,1.88.48.49,1.15.78,1.89.78,1.48,0,2.64-1.26,2.64-2.74v-10.86c0-.51.41-.92.92-.92s.92.41.92.92v10.94c0,.73.3,1.4.78,1.88.48.49,1.15.78,1.89.78,1.48,0,2.64-1.26,2.64-2.74v-10.86c0-.51.41-.92.92-.92h.08c.51,0,.92.41.92.92v10.94c0,.73.3,1.4.78,1.88.52.52,1.26.83,2.07.77,1.4-.1,2.46-1.32,2.46-2.72v-38.39h2.07v-152.46c0-6.82-5.53-12.34-12.34-12.34h-54.04v-18.48h54.04Z"/>
  </g>
</svg>