<?xml version="1.0" encoding="UTF-8"?>
<svg id="Layer_2" data-name="Layer 2" xmlns="http://www.w3.org/2000/svg" viewBox="0 0 239.35 488.56">
  <g id="Layer_1-2" data-name="Layer 1">
    <path d="M236.03,50.86V3.29c0-.91-.37-1.73-.96-2.33-.6-.6-1.43-.97-2.34-.96-1.83,0-3.27,1.56-3.27,3.39v13.43c0,.63-.51,1.13-1.13,1.13s-1.13-.51-1.13-1.13V3.29c0-.91-.37-1.73-.96-2.33C225.63.36,224.8,0,223.88,0c-1.82,0-3.27,1.56-3.27,3.38v13.43c0,.63-.51,1.13-1.13,1.13h-.1c-.63,0-1.13-.51-1.13-1.13V3.29c0-.91-.37-1.73-.96-2.32-.65-.65-1.56-1.03-2.57-.95-1.73.12-3.05,1.63-3.05,3.37v47.48h-1.93v106.88h-37.14v-49.19c0-31.87-25.83-57.7-57.7-57.7h0c-31.87,0-57.7,25.83-57.7,57.7v49.19H19.59c-10.82,0-19.59,8.77-19.59,19.59v148.81h3.1v47.57c0,.91.37,1.73.96,2.33.6.6,1.43.97,2.34.96,1.83,0,3.27-1.56,3.27-3.39v-13.43c0-.63.51-1.13,1.13-1.13s1.13.51,1.13,1.13v13.53c0,.91.37,1.73.96,2.33.6.6,1.43.97,2.34.96,1.82,0,3.27-1.56,3.27-3.38v-13.43c0-.63.51-1.13,1.13-1.13h.1c.63,0,1.13.51,1.13,1.13v13.53c0,.91.37,1.73.96,2.33.65.65,1.56,1.03,2.57.95,1.73-.12,3.05-1.63,3.05-3.37v-47.48h2.14v-138.8h27.6v33.55c0,21.1,15.23,38.2,34.02,38.2v199.93h-.43l-22.82,7.67c-7.07,2.38-11.63,7.74-11.63,13.66h-1.73c-2.02,0-3.66,1.64-3.66,3.66v.89c0,2.02,1.64,3.66,3.66,3.66h62.65c2.02,0,3.66-1.64,3.66-3.66v-.89c0-2.02-1.64-3.66-3.66-3.66h-1.73v-21.33h5.23v-199.93h22.31v199.93h4.02v21.33h-1.73c-2.02,0-3.66,1.64-3.66,3.66v.89c0,2.02,1.64,3.66,3.66,3.66h62.65c2.02,0,3.66-1.64,3.66-3.66v-.89c0-2.02-1.64-3.66-3.66-3.66h-1.73c0-5.92-4.57-11.28-11.63-13.66l-22.82-7.67h.78V187.35h47.32c10.73,0,19.42-8.7,19.42-19.42V50.86h-3.31Z"/>
  </g>
</svg>