<?xml version="1.0" encoding="UTF-8"?>
<svg id="Layer_2" data-name="Layer 2" xmlns="http://www.w3.org/2000/svg" viewBox="0 0 312.9 404.65">
  <g id="Layer_1-2" data-name="Layer 1">
    <path d="M310.31,47.43V3.07c0-.85-.34-1.61-.9-2.17-.56-.56-1.33-.9-2.19-.9-1.7,0-3.05,1.46-3.05,3.16v12.53c0,.58-.47,1.06-1.06,1.06s-1.06-.47-1.06-1.06V3.07c0-.85-.34-1.61-.9-2.17-.56-.56-1.33-.9-2.18-.9-1.7,0-3.05,1.45-3.05,3.16v12.53c0,.58-.47,1.06-1.06,1.06h-.1c-.58,0-1.06-.47-1.06-1.06V3.07c0-.85-.34-1.61-.9-2.17-.6-.61-1.46-.96-2.39-.89-1.62.12-2.84,1.52-2.84,3.14v44.28h-2.19v127.95h-71.75v-44.81c0-31.59-25.61-57.2-57.2-57.2h0c-31.59,0-57.2,25.61-57.2,57.2v44.81H27.5V47.43h-2.41V3.07c0-.85-.34-1.61-.9-2.17C23.63.34,22.86,0,22.01,0c-1.7,0-3.05,1.46-3.05,3.16v12.53c0,.58-.47,1.06-1.06,1.06s-1.06-.47-1.06-1.06V3.07c0-.85-.34-1.61-.9-2.17C15.39.34,14.61,0,13.76,0c-1.7,0-3.05,1.45-3.05,3.16v12.53c0,.58-.47,1.06-1.06,1.06h-.1c-.58,0-1.06-.47-1.06-1.06V3.07c0-.85-.34-1.61-.9-2.17C7,.29,6.15-.06,5.21,0c-1.62.12-2.84,1.52-2.84,3.14v44.28H0v137.74c0,9.79,7.93,17.72,17.72,17.72h81.53v61.36h14.95v12.36h-55.43c-11.29,0-20.44,9.15-20.44,20.44v50.29c0,11.29,9.15,20.44,20.44,20.44h69.79l7.06,21c2.22,6.59,7.21,10.85,12.74,10.85v1.61c0,1.89,1.53,3.41,3.41,3.41h.83c1.89,0,3.41-1.53,3.41-3.41,0,1.89,1.53,3.41,3.41,3.41h.83c1.89,0,3.41-1.53,3.41-3.41v-1.61c5.52,0,10.52-4.26,12.74-10.85l7.16-21.28h.02v.29h70.55c11.29,0,20.44-9.15,20.44-20.44v-50.29c0-11.29-9.15-20.44-20.44-20.44h-53.43v-12.36h12.95v-61.36h81.53c9.79,0,17.72-7.93,17.72-17.72V47.43h-2.6ZM247.07,304.12v36.16h-63.49v4.15h-19.91v-1.61c0-1.89-1.53-3.41-3.41-3.41h-.83c-1.89,0-3.41,1.53-3.41,3.41,0-1.89-1.53-3.41-3.41-3.41h-.83c-1.89,0-3.41,1.53-3.41,3.41v1.61h-19.03v-4.15h-63.49v-36.16h78.68s23.87,0,23.87,0h0s78.68,0,78.68,0Z"/>
  </g>
</svg>