<?xml version="1.0" encoding="UTF-8"?>
<svg id="Layer_2" data-name="Layer 2" xmlns="http://www.w3.org/2000/svg" viewBox="0 0 354.31 350.92">
  <g id="Layer_1-2" data-name="Layer 1">
    <path d="M339.83,77.85h11.57c1.57,0,2.91-1.24,2.91-2.81,0-.79-.31-1.5-.83-2.02-.51-.51-1.22-.83-2-.83h-11.65c-.54,0-.98-.44-.98-.98s.44-.98.98-.98h11.56c1.57,0,2.91-1.24,2.92-2.82,0-.79-.31-1.5-.83-2.02-.51-.51-1.22-.83-2-.83h-40.96v-2.39h-138.28v-29.04c0-18.31-14.84-33.15-33.16-33.15H48.42C21.68,0,0,21.68,0,48.42c0,13.37,5.42,25.47,14.18,34.24,8.76,8.76,20.87,14.18,34.24,14.18h8.21v149.26h2.21v40.88c0,1.5,1.13,2.79,2.62,2.9.86.06,1.65-.26,2.21-.82.51-.51.83-1.22.83-2v-11.65c0-.54.44-.98.98-.98h.09c.54,0,.98.44.98.98v11.57c0,1.57,1.24,2.91,2.81,2.91.79,0,1.5-.31,2.02-.83.51-.51.83-1.22.83-2v-11.65c0-.54.44-.98.98-.98s.98.44.98.98v11.56c0,1.57,1.24,2.91,2.82,2.92.79,0,1.5-.31,2.02-.83.51-.51.83-1.22.83-2v-40.96h2.21V96.84h31.35v45.36h-9.64v9.81c0,11.66,8.99,21.23,20.42,22.13v151.35h.64l-19.65,6.61c-6.08,2.05-10.02,6.66-10.02,11.76h-1.49c-1.74,0-3.15,1.41-3.15,3.15v.77c0,1.74,1.41,3.15,3.15,3.15h53.94c1.74,0,3.15-1.41,3.15-3.15v-.77c0-1.74-1.41-3.15-3.15-3.15h-1.49v-18.36h3.46v-138.35h97.51v18.03h-58.61v3.75h-18.16v-1.49c0-1.74-1.41-3.15-3.15-3.15h-.77c-1.74,0-3.15,1.41-3.15,3.15v53.94c0,1.74,1.41,3.15,3.15,3.15h.77c1.74,0,3.15-1.41,3.15-3.15v-1.49c5.1,0,9.71-3.93,11.76-10.02l6.49-19.3h65.05c10.42,0,18.87-8.45,18.87-18.87v-31.07c0-10.42-8.45-18.87-18.87-18.87h-67.05v-19.55h-14.28v-54.62h138.28v-2.02h40.88c1.5,0,2.79-1.13,2.9-2.62.06-.86-.26-1.65-.82-2.21-.51-.51-1.22-.83-2-.83h-11.65c-.54,0-.98-.44-.98-.98v-.09c0-.54.44-.98.98-.98Z"/>
  </g>
</svg>