<?xml version="1.0" encoding="UTF-8"?>
<svg id="Layer_2" data-name="Layer 2" xmlns="http://www.w3.org/2000/svg" viewBox="0 0 335.92 330.99">
  <g id="Layer_1-2" data-name="Layer 1">
    <path d="M312.97,37.47h-22.82c-1.53-20.94-18.97-37.47-40.3-37.47h-42.69c-22.01,0-40.17,16.29-43.2,37.47H47.43v2.1H3.07c-.85,0-1.61.34-2.17.9C.34,41.02,0,41.8,0,42.65c0,1.7,1.46,3.05,3.16,3.05h12.53c.58,0,1.06.47,1.06,1.06s-.47,1.06-1.06,1.06H3.07c-.85,0-1.61.34-2.17.9C.34,49.27,0,50.04,0,50.9c0,1.7,1.45,3.05,3.16,3.05h12.53c.58,0,1.06.47,1.06,1.06v.1c0,.58-.47,1.06-1.06,1.06H3.07c-.85,0-1.61.34-2.17.9-.61.6-.96,1.46-.89,2.39.12,1.62,1.52,2.84,3.14,2.84h44.28v2.09h121.24c7.38,13.7,21.84,23.02,38.49,23.02h1.43l-.02,24.05h-38.32c-25.07,0-45.47,20.4-45.47,45.47v37.57h-52.63v6.35h-19.89v-1.61c0-1.89-1.53-3.41-3.41-3.41h-.83c-1.89,0-3.41,1.53-3.41,3.41v58.43c0,1.89,1.53,3.41,3.41,3.41h.83c1.89,0,3.41-1.53,3.41-3.41v-1.61c5.52,0,10.52-4.26,12.74-10.85l7.16-21.28v7.46h59.16c16.73,0,30.35-13.61,30.35-30.35v-44.1c0-4.74,3.85-8.59,8.59-8.59h1.44v155.12h4.16v19.89h-1.61c-1.89,0-3.41,1.53-3.41,3.41v.83c0,1.89,1.53,3.41,3.41,3.41h58.43c1.89,0,3.41-1.53,3.41-3.41v-.83c0-1.89-1.53-3.41-3.41-3.41h-1.61c0-5.52-4.26-10.52-10.85-12.74l-21.28-7.16h9.65l.02-115.74c30.55,0,57.17-16.78,71.19-41.61h32.42c13.08,0,23.71-10.64,23.71-23.71v-61.96c0-12.65-10.29-22.95-22.95-22.95ZM309.02,119.18h-19.79c.7-4.29,1.07-8.7,1.07-13.19v-41.62h18.71v54.81Z"/>
  </g>
</svg>