<svg width="440" height="540" viewBox="0 0 440 540" fill="none" xmlns="http://www.w3.org/2000/svg">
<path fill-rule="evenodd" clip-rule="evenodd" d="M190.098 0C200.183 2.79264e-05 208.36 8.164 208.36 18.2348C208.36 28.3055 200.183 36.4695 190.098 36.4695L190.569 36.4756C200.437 36.7253 208.36 44.7909 208.36 54.7043C208.36 64.775 200.183 72.939 190.098 72.939L190.569 72.9451C200.437 73.1948 208.36 81.2604 208.36 91.1738C208.36 99.7636 202.411 106.965 194.403 108.897L217.496 108.867L208.711 118.624C234.795 130.473 253.383 155.899 255.419 185.864H260.104C262.916 185.864 265.196 188.141 265.196 190.949V201.004C265.196 203.812 262.916 206.089 260.104 206.089H255.716V221.339H297.938C303.62 221.339 308.222 225.939 308.222 231.607L308.19 355.234H329.499C332.718 355.234 335.328 357.875 335.328 361.132C335.327 364.388 332.718 367.029 329.499 367.029L329.494 367.04H308.19L308.217 370.593H329.531C332.75 370.593 335.36 373.234 335.36 376.49C335.36 379.746 332.75 382.388 329.531 382.388L329.526 382.399H308.222L308.217 386.113L329.531 386.103C332.75 386.103 335.354 388.754 335.354 392.011C335.354 395.267 332.745 397.908 329.526 397.908H295.235C289.553 397.908 284.951 393.308 284.951 387.64V244.575H255.716V330.408H255.732V418.081H426.91C433.97 418.081 439.694 423.796 439.694 430.845L439.683 430.851V483.804H439.668L439.683 492.38C438.133 497.996 431.663 497.996 430.114 492.38L428.225 485.534L427.416 493.646C426.675 501.101 415.791 501.101 415.045 493.646L414.236 485.534L412.347 492.375C410.798 497.991 404.328 497.991 402.778 492.375L402.794 483.799H402.778V440.426L246.329 440.536C239.165 440.541 233.358 434.748 233.358 427.594V373.562H218.44V458.844H375.876C382.935 458.844 388.659 464.559 388.659 471.608L388.648 471.613V524.567H388.633L388.648 533.142C387.099 538.759 380.629 538.759 379.079 533.142L377.19 526.297L376.382 534.409C375.641 541.864 364.757 541.864 364.01 534.409L363.202 526.297L361.313 533.137C359.763 538.754 353.293 538.754 351.744 533.137L351.759 524.562H351.744V481.194L209.038 481.298C201.874 481.304 196.067 475.51 196.067 468.357V354.07C167.705 352.932 145.058 329.632 145.058 301.035C145.058 290.877 147.923 281.388 152.881 273.318H10.2841C4.60729 273.318 0 268.723 0 263.049V228.81C0 225.595 2.64556 222.99 5.90665 222.99C9.1677 222.99 11.8235 225.59 11.8235 228.804L11.8133 250.087L15.533 250.082V228.81L15.5437 228.804C15.5437 225.59 18.1892 222.985 21.4503 222.985C24.7113 222.985 27.3565 225.59 27.3565 228.804V250.087L30.9151 250.114V228.842L30.9253 228.837C30.9253 225.622 33.5709 223.017 36.8319 223.017C40.093 223.017 42.7386 225.622 42.7386 228.837V250.114L170.802 250.089L205.609 206.06C203.052 205.789 201.06 203.629 201.06 201.004V190.949C201.06 188.141 203.34 185.864 206.152 185.864H211.098C208.453 168.676 193.577 155.511 175.623 155.511C175.563 155.511 175.502 155.512 175.441 155.512C170.45 160.529 163.986 163.771 157.038 164.811C147.417 182.009 128.935 193.659 107.699 193.659C90.2539 193.659 74.6675 185.801 64.324 173.465H38.0998C34.1917 173.465 31.0191 170.302 31.0191 166.395C31.0192 162.493 34.1865 159.325 38.0998 159.325H112.395C116.058 159.325 119.027 156.361 119.027 152.703C119.027 149.046 116.058 146.082 112.395 146.082H7.77419C3.86612 146.082 0.693575 142.919 0.693558 139.012C0.693558 135.104 3.86089 131.936 7.77419 131.936H32.6002V31.6503L48.0812 45.4307V112.331C48.0813 115.588 50.6015 118.229 53.7112 118.229C56.8209 118.229 59.3411 115.588 59.3412 112.331V55.444L74.8222 69.2244V109.054L98.1695 109.023C89.8817 107.297 83.6556 99.9617 83.6556 91.1738C83.6556 81.2604 91.5784 73.1948 101.446 72.9451L101.918 72.939C91.8319 72.939 83.6556 64.775 83.6556 54.7043C83.6556 44.7909 91.5784 36.7253 101.446 36.4756L101.918 36.4695C91.8319 36.4695 83.6556 28.3055 83.6556 18.2348C83.6556 8.164 91.8319 2.80204e-05 101.918 0H190.098ZM198.237 265.54C178.604 265.54 162.689 281.431 162.689 301.035C162.689 320.638 178.604 336.53 198.237 336.53C217.87 336.53 233.785 320.638 233.785 301.035C233.785 281.431 217.87 265.54 198.237 265.54ZM158.04 116.781C146.218 116.781 135.646 122.043 128.559 130.327C135.646 138.61 146.224 143.872 158.04 143.872C169.855 143.872 180.433 138.61 187.52 130.327C180.433 122.043 169.855 116.781 158.04 116.781Z" fill="#00A7B6"/>
<path d="M158.04 140.486C163.659 140.486 168.215 135.937 168.215 130.327C168.215 124.716 163.659 120.167 158.04 120.167C152.421 120.167 147.865 124.716 147.865 130.327C147.865 135.937 152.421 140.486 158.04 140.486Z" fill="#00A7B6"/>
</svg>
