<svg width="452" height="319" viewBox="0 0 452 319" fill="none" xmlns="http://www.w3.org/2000/svg">
<path d="M107.17 123.16C119.144 123.16 129.572 129.682 135.168 139.351L107.174 155.514L135.168 171.678C129.572 181.346 119.144 187.868 107.17 187.868C89.3006 187.868 74.8155 173.384 74.8154 155.515C74.8154 137.645 89.3005 123.16 107.17 123.16Z" fill="#4AC4F2"/>
<path d="M348.695 123.16C360.669 123.16 371.099 129.682 376.694 139.351L348.699 155.514L376.694 171.678C371.099 181.347 360.669 187.868 348.695 187.868C330.826 187.868 316.341 173.384 316.341 155.515C316.341 137.645 330.826 123.16 348.695 123.16Z" fill="#4AC4F2"/>
<path fill-rule="evenodd" clip-rule="evenodd" d="M327.771 0C396.086 0.00029335 451.507 61.5635 451.507 137.495C451.507 170.319 441.147 200.453 423.859 224.089C420.381 228.862 416.597 233.382 412.562 237.596C367.652 287.378 297.33 318.935 226.019 318.936C154.707 318.935 90.504 290.174 45.7725 244.273C36.4802 235.87 28.2822 225.996 21.5029 214.978C7.92206 192.919 7.73014e-05 166.237 0 137.498C0 61.5661 55.3969 0.00195312 123.737 0.00195312C166.082 0.00214482 203.45 23.6387 225.767 59.6621C248.056 23.6388 285.426 0.00202921 327.771 0.00195312V0ZM150.545 234.402C167.3 259.544 194.732 275.95 225.754 275.95C256.776 275.95 284.208 259.544 300.963 234.402H265.762L258.454 255.378L251.146 234.402H243.883L236.575 255.378L229.267 234.402H222.407L215.099 255.378L207.791 234.402H200.703L193.396 255.378L186.088 234.402H150.545ZM197.8 208.332H253.709L225.754 109.276L197.8 208.332ZM104.991 109.276C72.2735 109.276 43.9731 128.112 30.2881 155.519C43.973 182.925 72.2759 201.761 104.991 201.761C137.707 201.761 166.01 182.925 179.695 155.519C166.01 128.112 137.707 109.277 104.991 109.276ZM346.517 109.276C313.799 109.277 285.498 128.112 271.813 155.519C285.498 182.925 313.801 201.761 346.517 201.761C379.232 201.761 407.536 182.925 421.221 155.519C407.536 128.112 379.232 109.277 346.517 109.276Z" fill="#4AC4F2"/>
</svg>
