<?xml version="1.0" encoding="UTF-8"?>
<svg id="Layer_2" data-name="Layer 2" xmlns="http://www.w3.org/2000/svg" viewBox="0 0 242.15 509.1">
  <g id="Layer_1-2" data-name="Layer 1">
    <path d="M181.96,175.98h35.44v120.9h2.15v39.93c0,.76.31,1.45.81,1.95.5.5,1.2.81,1.97.81,1.53,0,2.75-1.31,2.75-2.84v-11.27c0-.53.43-.95.95-.95s.95.43.95.95v11.36c0,.76.31,1.45.81,1.95.5.5,1.2.81,1.97.81,1.53,0,2.74-1.31,2.74-2.84v-11.28c0-.53.43-.95.95-.95h.09c.52,0,.95.43.95.95v11.36c0,.76.31,1.45.81,1.95.54.54,1.31.86,2.15.8,1.46-.1,2.56-1.37,2.56-2.83v-39.86h2.15v-133.57c0-6.67-5.41-12.08-12.08-12.08h-48.12v-39.27c0-28.43-23.05-51.48-51.48-51.48h0c-28.43,0-51.48,23.05-51.48,51.48v39.27H24.75V42.75h-2.15V2.76c0-.76-.31-1.45-.81-1.95C21.29.31,20.59,0,19.83,0c-1.53,0-2.75,1.31-2.75,2.84v11.27c0,.52-.43.95-.95.95s-.95-.43-.95-.95V2.76c0-.76-.31-1.45-.81-1.95C13.87.31,13.17,0,12.4,0c-1.53,0-2.74,1.31-2.74,2.84v11.28c0,.52-.43.95-.95.95h-.09c-.52,0-.95-.43-.95-.95V2.76c0-.76-.31-1.45-.81-1.95C6.32.26,5.55-.05,4.71,0c-1.46.1-2.56,1.37-2.56,2.83v39.92H0v121.16c0,6.67,5.41,12.08,12.08,12.08h66.92v72.84h-16.15c-7.52,0-13.62,6.1-13.62,13.62v99.38h.1l-19.13,6.43c-5.93,1.99-9.76,6.49-9.76,11.46h-1.45c-1.7,0-3.07,1.38-3.07,3.07v.75c0,1.7,1.38,3.07,3.07,3.07h52.59c1.7,0,3.07-1.38,3.07-3.07v-.75c0-1.7-1.38-3.07-3.07-3.07h-1.45v-17.89h3.87v-81.79h31.75v204.27h-.53l-19.16,6.44c-5.93,1.99-9.76,6.49-9.76,11.46h-1.45c-1.7,0-3.07,1.38-3.07,3.07v.75c0,1.7,1.38,3.07,3.07,3.07h52.59c1.7,0,3.07-1.38,3.07-3.07v-.75c0-1.7-1.38-3.07-3.07-3.07h-1.45v-17.9h4.53v-204.27h29.83c11.96,0,21.65-9.69,21.65-21.65v-4.14h0v-78.26"/>
  </g>
</svg>