<svg width="220" height="156" viewBox="0 0 220 156" fill="none" xmlns="http://www.w3.org/2000/svg">
<rect width="219.521" height="156" fill="#FDFDFD"/>
<rect x="3.73633" y="3.7366" width="212.048" height="16.8144" fill="#0D0F10"/>
<circle cx="13.5449" cy="12.6109" r="4.20359" fill="#FF2424"/>
<circle cx="25.6889" cy="12.6109" r="4.20359" fill="#FF2424"/>
<circle cx="37.8325" cy="12.6109" r="4.20359" fill="#FF2424"/>
<rect x="62" y="62.5869" width="74.7305" height="7.47305" fill="#0D0F10"/>
<rect x="62" y="82.194" width="96.2156" height="7.47305" fill="#0D0F10"/>
<rect x="62" y="102.755" width="85.006" height="7.47305" fill="#0D0F10"/>
<path d="M50.2422 48.2344C47.4845 48.2344 45.3086 48.6627 43.7158 49.5186C42.1469 50.3744 41.0299 51.706 40.3643 53.5127C39.7224 55.2957 39.4014 57.578 39.4014 60.3594V74.623C39.4014 76.4772 39.1515 78.1651 38.6523 79.6865C38.1769 81.208 37.2851 82.5158 35.9775 83.6094C34.67 84.703 32.8038 85.5473 30.3789 86.1416C30.07 86.2181 29.7489 86.2888 29.416 86.3555V87.4248C29.7489 87.4914 30.07 87.5622 30.3789 87.6387C32.8037 88.233 34.67 89.0774 35.9775 90.1709C37.2851 91.2645 38.1769 92.5722 38.6523 94.0938C39.1515 95.6152 39.4014 97.303 39.4014 99.1572V113.422C39.4014 116.203 39.7224 118.486 40.3643 120.269C41.0299 122.051 42.1469 123.371 43.7158 124.227C45.3086 125.106 47.4845 125.546 50.2422 125.546V132.535C46.7475 132.535 43.8109 132.155 41.4336 131.395C39.0563 130.634 37.1549 129.468 35.7285 127.899C34.3021 126.33 33.2679 124.345 32.626 121.944C32.0079 119.543 31.6983 116.702 31.6982 113.422V102.01C31.6982 98.1114 30.9021 95.3301 29.3096 93.666C27.7405 92.0019 24.9702 91.1699 21 91.1699V82.6113C24.9701 82.6113 27.7405 81.7793 29.3096 80.1152C30.9024 78.4511 31.6982 75.6693 31.6982 71.7705V60.3594C31.6982 57.0786 32.0079 54.2371 32.626 51.8359C33.2679 49.435 34.3022 47.4498 35.7285 45.8809C37.1549 44.312 39.0565 43.1474 41.4336 42.3867C43.8109 41.626 46.7475 41.2451 50.2422 41.2451V48.2344Z" fill="#0D0F10"/>
<path d="M168.593 41.2451C172.087 41.2451 175.023 41.626 177.4 42.3867C179.778 43.1475 181.68 44.3118 183.106 45.8809C184.533 47.4498 185.555 49.435 186.173 51.8359C186.815 54.2371 187.136 57.0786 187.136 60.3594V71.7705C187.136 75.6693 187.92 78.4511 189.489 80.1152C191.082 81.7793 193.864 82.6113 197.834 82.6113V91.1699C193.864 91.1699 191.082 92.0019 189.489 93.666C187.92 95.3301 187.136 98.1113 187.136 102.01V113.422C187.136 116.702 186.815 119.543 186.173 121.944C185.555 124.345 184.533 126.33 183.106 127.899C181.68 129.468 179.778 130.634 177.4 131.395C175.023 132.155 172.087 132.535 168.593 132.535V125.546C171.35 125.546 173.514 125.106 175.083 124.227C176.676 123.371 177.793 122.051 178.435 120.269C179.1 118.486 179.434 116.203 179.434 113.422V99.1572C179.434 97.303 179.671 95.6152 180.146 94.0938C180.646 92.5723 181.549 91.2645 182.856 90.1709C184.164 89.0773 186.019 88.233 188.42 87.6387C188.74 87.5602 189.073 87.488 189.418 87.4199V86.3604C189.073 86.2922 188.74 86.2201 188.42 86.1416C186.019 85.5473 184.164 84.703 182.856 83.6094C181.549 82.5158 180.646 81.208 180.146 79.6865C179.671 78.1651 179.434 76.4772 179.434 74.623V60.3594C179.434 57.578 179.1 55.2957 178.435 53.5127C177.793 51.706 176.676 50.3744 175.083 49.5186C173.514 48.6627 171.35 48.2344 168.593 48.2344V41.2451Z" fill="#0D0F10"/>
</svg>
