<svg width="356" height="552" viewBox="0 0 356 552" fill="none" xmlns="http://www.w3.org/2000/svg">
<g style="mix-blend-mode:multiply">
<rect width="16" height="48" fill="black"/>
</g>
<g style="mix-blend-mode:multiply">
<rect x="20" width="134" height="48" fill="black"/>
</g>
<g style="mix-blend-mode:multiply">
<rect x="158" width="198" height="48" fill="black"/>
</g>
<g style="mix-blend-mode:multiply">
<rect y="52" width="48" height="44" fill="black"/>
</g>
<g style="mix-blend-mode:multiply">
<rect y="100" width="149" height="39" fill="black"/>
</g>
<g style="mix-blend-mode:multiply">
<rect y="223" width="35" height="47" fill="black"/>
</g>
<g style="mix-blend-mode:multiply">
<rect y="274" width="59" height="44" fill="black"/>
</g>
<g style="mix-blend-mode:multiply">
<rect y="429" width="123" height="58" fill="black"/>
</g>
<g style="mix-blend-mode:multiply">
<rect y="491" width="195" height="61" fill="black"/>
</g>
<g style="mix-blend-mode:multiply">
<rect x="199" y="491" width="85" height="61" fill="black"/>
</g>
<g style="mix-blend-mode:multiply">
<rect x="288" y="491" width="68" height="61" fill="black"/>
</g>
<g style="mix-blend-mode:multiply">
<rect x="127" y="429" width="182" height="58" fill="black"/>
</g>
<g style="mix-blend-mode:multiply">
<rect x="313" y="429" width="43" height="58" fill="black"/>
</g>
<g style="mix-blend-mode:multiply">
<rect y="322" width="65" height="35" fill="black"/>
</g>
<g style="mix-blend-mode:multiply">
<rect y="361" width="356" height="64" fill="black"/>
</g>
<g style="mix-blend-mode:multiply">
<rect x="69" y="322" width="108" height="35" fill="black"/>
</g>
<g style="mix-blend-mode:multiply">
<rect x="181" y="322" width="101" height="35" fill="black"/>
</g>
<g style="mix-blend-mode:multiply">
<rect x="286" y="322" width="70" height="35" fill="black"/>
</g>
<g style="mix-blend-mode:multiply">
<rect x="63" y="274" width="120" height="44" fill="black"/>
</g>
<g style="mix-blend-mode:multiply">
<rect x="187" y="274" width="30" height="44" fill="black"/>
</g>
<g style="mix-blend-mode:multiply">
<rect x="221" y="274" width="135" height="44" fill="black"/>
</g>
<g style="mix-blend-mode:multiply">
<rect x="39" y="223" width="46" height="47" fill="black"/>
</g>
<g style="mix-blend-mode:multiply">
<rect x="89" y="223" width="74" height="47" fill="black"/>
</g>
<g style="mix-blend-mode:multiply">
<rect x="167" y="223" width="189" height="47" fill="black"/>
</g>
<g style="mix-blend-mode:multiply">
<rect y="143" width="356" height="76" fill="black"/>
</g>
<g style="mix-blend-mode:multiply">
<rect x="153" y="100" width="148" height="39" fill="black"/>
</g>
<g style="mix-blend-mode:multiply">
<rect x="305" y="100" width="51" height="39" fill="black"/>
</g>
<g style="mix-blend-mode:multiply">
<rect x="52" y="52" width="75" height="44" fill="black"/>
</g>
<g style="mix-blend-mode:multiply">
<rect x="131" y="52" width="94" height="44" fill="black"/>
</g>
<g style="mix-blend-mode:multiply">
<rect x="229" y="52" width="49" height="44" fill="black"/>
</g>
<g style="mix-blend-mode:multiply">
<rect x="282" y="52" width="74" height="44" fill="black"/>
</g>
</svg>
