<svg width="219" height="156" viewBox="0 0 219 156" fill="none" xmlns="http://www.w3.org/2000/svg">
<rect width="219" height="155.148" fill="#0D0F10"/>
<rect x="90.1768" y="11.7621" width="116.501" height="7.28133" fill="#FDFDFD"/>
<rect x="12.3223" y="82.895" width="116.501" height="7.28133" fill="#FDFDFD"/>
<rect x="12.3223" y="137.785" width="116.501" height="7.28133" fill="#FDFDFD"/>
<rect x="12.3223" y="96.8976" width="194.355" height="7.28133" fill="#FDFDFD"/>
<rect x="12.3223" y="108.66" width="194.355" height="7.28133" fill="#FDFDFD"/>
<rect x="12.3223" y="120.422" width="194.355" height="7.28133" fill="#FDFDFD"/>
<rect x="90.1768" y="22.9641" width="116.501" height="7.28133" fill="#FDFDFD"/>
<rect x="90.1768" y="34.1663" width="116.501" height="7.28133" fill="#FDFDFD"/>
<rect x="90.1768" y="45.3683" width="116.501" height="7.28133" fill="#FDFDFD"/>
<rect x="90.1768" y="56.5703" width="116.501" height="7.28133" fill="#FDFDFD"/>
<path d="M43.6885 7.28137C61.0111 7.28163 75.0537 21.3249 75.0537 38.6476C75.0535 51.7461 67.0232 62.9666 55.6182 67.6613L47.9277 50.4464C55.4671 48.5539 61.0506 41.7328 61.0508 33.6066C61.0508 24.0173 53.2768 16.2434 43.6875 16.2433C34.0981 16.2433 26.3242 24.0172 26.3242 33.6066C26.3244 41.5517 31.661 48.2502 38.9453 50.3136L31.2842 67.462C20.131 62.6546 12.3225 51.564 12.3223 38.6476C12.3223 21.3248 26.3657 7.28137 43.6885 7.28137Z" fill="#FF2424"/>
</svg>
