<svg width="311" height="442" viewBox="0 0 311 442" fill="none" xmlns="http://www.w3.org/2000/svg">
<path d="M0 441.118V0H225.539C273.92 0 310.917 36.997 310.205 85.3777V149.411C310.205 169.332 303.802 188.542 293.13 202.772C304.514 217.713 310.205 236.212 310.205 256.133V355.74C310.917 404.121 273.92 441.118 225.539 441.118H0ZM64.0332 377.085H224.828C236.923 377.085 246.172 367.835 246.172 355.74V256.133C246.172 244.038 236.923 234.789 224.828 234.789H64.0332V377.085ZM64.0332 170.755H224.828C236.923 170.755 246.172 161.506 246.172 149.411V85.3777C246.172 73.2825 236.923 64.0332 224.828 64.0332H64.0332V170.755Z" fill="black"/>
</svg>
