<svg width="311" height="521" viewBox="0 0 311 521" fill="none" xmlns="http://www.w3.org/2000/svg">
<path d="M64.0332 355.74C64.0332 367.835 73.2825 377.085 85.3777 377.085H224.828C236.923 377.085 246.172 367.835 246.172 355.74V85.3777C246.172 73.2825 236.923 64.0332 224.828 64.0332H85.3777C73.2825 64.0332 64.0332 73.2825 64.0332 85.3777V355.74ZM0 85.3777C0 36.997 36.2855 0 84.6662 0H225.539C273.92 0 310.917 36.997 310.205 85.3777V355.74C310.917 399.852 281.035 434.003 239.057 440.406V520.804H167.909V441.118H84.6662C36.2855 441.118 0 404.121 0 355.74V85.3777Z" fill="black"/>
</svg>
