<svg width="311" height="442" viewBox="0 0 311 442" fill="none" xmlns="http://www.w3.org/2000/svg">
<path d="M85.3877 64.0332C73.2926 64.0332 64.0433 73.2825 64.0433 85.3777V149.411C64.0433 161.506 73.2926 170.755 85.3877 170.755H224.838C273.219 170.044 310.216 207.041 310.216 255.421V355.74C310.927 404.121 273.93 441.118 225.549 441.118H0.0100904V377.085H224.838C236.933 377.085 246.182 367.835 246.182 355.74V256.133C246.182 244.038 236.933 234.789 224.838 234.789H84.6763C36.2956 234.789 -0.701392 197.792 0.0100904 149.411V85.3777C-0.701392 36.997 36.2956 0 84.6763 0H288.871V64.0332H85.3877Z" fill="black"/>
</svg>
